<?xml version="1.0" standalone="no"?>
<!DOCTYPE svg PUBLIC "-//W3C//DTD SVG 20010904//EN"
 "http://www.w3.org/TR/2001/REC-SVG-20010904/DTD/svg10.dtd">
<svg version="1.0" xmlns="http://www.w3.org/2000/svg"
 width="351.000000pt" height="124.000000pt" viewBox="0 0 351.000000 124.000000"
 preserveAspectRatio="xMidYMid meet">

<g transform="translate(0.000000,124.000000) scale(0.100000,-0.100000)"
fill="#000000" stroke="none">
<path d="M1545 843 c-33 -92 -61 -170 -63 -175 -2 -4 17 -8 41 -8 41 0 46 3
56 30 10 29 12 30 76 30 64 0 66 -1 76 -30 10 -27 15 -30 56 -30 32 0 44 4 41
13 -3 6 -31 85 -63 175 l-58 162 -51 0 -51 0 -60 -167z m133 7 l21 -60 -44 0
-44 0 21 60 c11 33 21 60 23 60 2 0 12 -27 23 -60z"/>
<path d="M1840 975 c0 -28 -4 -35 -20 -35 -16 0 -20 -7 -20 -35 0 -28 4 -35
20 -35 18 0 20 -7 20 -80 0 -73 3 -83 25 -105 18 -19 35 -25 70 -25 45 0 45 0
45 34 0 30 -3 35 -27 38 -27 3 -28 5 -31 71 l-3 67 31 0 c28 0 30 3 30 35 0
32 -2 35 -30 35 -28 0 -30 3 -30 35 0 34 -1 35 -40 35 -39 0 -40 -1 -40 -35z"/>
<path d="M1011 954 c-17 -14 -31 -32 -31 -40 0 -8 -4 -14 -8 -14 -4 0 -8 -9
-9 -20 -1 -12 -22 -62 -47 -113 -36 -72 -46 -104 -46 -141 0 -70 -18 -121 -61
-170 -55 -62 -119 -87 -216 -85 -52 2 -88 -3 -108 -13 -16 -8 -49 -20 -73 -28
-28 -9 -60 -32 -97 -71 -46 -48 -55 -63 -55 -94 0 -48 27 -74 121 -113 238
-99 498 -46 680 138 185 187 228 476 108 712 -42 81 -100 101 -158 52z"/>
<path d="M2064 930 c-11 -4 -33 -22 -47 -40 -23 -27 -27 -41 -27 -92 0 -57 2
-63 39 -99 36 -37 42 -39 99 -39 51 0 65 4 93 27 34 29 59 78 59 115 0 36 -38
102 -69 121 -31 18 -110 22 -147 7z m106 -80 c38 -38 13 -120 -38 -120 -36 0
-57 26 -57 70 0 65 53 92 95 50z"/>
<path d="M2290 800 l0 -140 40 0 40 0 0 85 c0 72 3 88 20 105 24 24 53 26 74
4 12 -12 16 -37 16 -105 l0 -89 45 0 45 0 0 95 c0 85 2 95 21 105 30 16 68 4
79 -26 6 -14 10 -59 10 -100 l0 -74 40 0 40 0 0 100 c0 55 -5 111 -12 125 -25
54 -115 73 -169 34 l-29 -20 -26 20 c-32 25 -95 28 -129 5 -23 -15 -25 -15
-25 0 0 12 -10 16 -40 16 l-40 0 0 -140z"/>
<path d="M2820 913 c-61 -55 -60 -176 2 -228 35 -29 101 -34 136 -9 20 14 22
14 22 0 0 -12 11 -16 45 -16 l45 0 0 140 0 140 -45 0 c-34 0 -45 -4 -45 -16 0
-14 -2 -14 -22 0 -37 26 -103 21 -138 -11z m138 -59 c27 -19 30 -78 5 -106
-36 -40 -103 -6 -103 52 0 33 30 70 58 70 10 0 28 -7 40 -16z"/>
<path d="M1500 395 l0 -175 88 0 c63 0 98 6 127 19 48 21 95 73 95 104 1 12 8
0 18 -28 29 -84 122 -121 202 -80 27 14 60 51 60 67 0 12 -88 10 -95 -2 -9
-14 -58 -13 -73 2 -30 30 -14 38 83 38 l95 0 0 31 c0 46 -28 98 -64 116 -17 9
-52 17 -79 17 -54 0 -93 -24 -118 -71 l-15 -31 -12 42 c-25 96 -76 126 -217
126 l-95 0 0 -175z m201 76 c23 -24 29 -38 29 -74 0 -63 -33 -97 -95 -97 l-45
0 0 100 0 100 41 0 c31 0 47 -6 70 -29z m290 -41 c38 -21 23 -40 -31 -40 -52
0 -60 8 -34 34 18 19 38 20 65 6z"/>
<path d="M3010 539 c0 -22 -5 -32 -20 -36 -15 -4 -20 -14 -20 -39 0 -27 4 -34
20 -34 18 0 20 -7 20 -74 0 -41 3 -82 6 -91 9 -23 57 -45 99 -45 33 0 35 2 35
34 0 29 -4 34 -30 40 -30 5 -30 6 -30 71 l0 65 30 0 c28 0 30 3 30 35 0 32 -2
35 -30 35 -28 0 -30 3 -30 35 0 34 -1 35 -40 35 -38 0 -40 -2 -40 -31z"/>
<path d="M2801 503 c-66 -13 -101 -64 -101 -148 0 -49 4 -60 34 -92 30 -33 39
-37 95 -41 l61 -4 42 43 43 44 -49 3 c-27 2 -54 -2 -59 -7 -23 -23 -87 -2 -87
29 0 5 44 11 98 12 l97 3 -2 39 c-6 84 -82 137 -172 119z m70 -82 c32 -26 22
-33 -42 -29 l-54 3 23 23 c27 27 43 28 73 3z"/>
<path d="M2114 438 c12 -35 35 -98 50 -140 l28 -78 53 0 52 0 47 133 c25 73
46 136 46 140 0 4 -19 7 -43 7 l-43 0 -30 -97 -30 -98 -30 95 -30 95 -47 3
-47 3 24 -63z"/>
<path d="M2400 360 l0 -140 45 0 45 0 0 93 c0 101 7 117 51 117 44 0 59 -32
59 -127 l0 -83 41 0 41 0 -4 116 c-3 113 -4 116 -31 140 -34 29 -110 34 -139
7 -17 -15 -18 -15 -18 0 0 13 -10 17 -45 17 l-45 0 0 -140z"/>
<path d="M115 280 c23 -26 75 -26 106 -1 l23 19 -73 1 c-73 1 -74 1 -56 -19z"/>
</g>
</svg>
